<svg width="17" height="20" viewBox="0 0 17 20" fill="none" xmlns="http://www.w3.org/2000/svg">
<rect x="7.5415" y="18.75" width="1.25" height="1.25" fill="#020202"/>
<rect x="8.7915" y="18.75" width="1.25" height="1.25" fill="#020202"/>
<rect x="6.2915" y="18.75" width="1.25" height="1.25" fill="#020202"/>
<rect x="10.0415" y="18.75" width="1.25" height="1.25" fill="#020202"/>
<rect x="5.0415" y="18.75" width="1.25" height="1.25" fill="#020202"/>
<rect x="11.2915" y="18.75" width="1.25" height="1.25" fill="#020202"/>
<rect x="3.7915" y="18.75" width="1.25" height="1.25" fill="#020202"/>
<rect x="12.5415" y="18.75" width="1.25" height="1.25" fill="#020202"/>
<rect x="7.5415" y="16.25" width="1.25" height="1.25" fill="#020202"/>
<rect x="7.5415" y="15" width="1.25" height="1.25" fill="#020202"/>
<rect x="7.5415" y="13.75" width="1.25" height="1.25" fill="#020202"/>
<rect x="7.5415" y="12.5" width="1.25" height="1.25" fill="#020202"/>
<rect x="7.5415" y="11.25" width="1.25" height="1.25" fill="#020202"/>
<rect x="7.5415" y="10" width="1.25" height="1.25" fill="#020202"/>
<rect x="7.5415" y="8.75" width="1.25" height="1.25" fill="#020202"/>
<rect x="7.5415" y="7.5" width="1.25" height="1.25" fill="#020202"/>
<rect x="5.0415" y="16.25" width="1.25" height="1.25" fill="#020202"/>
<rect x="5.0415" y="15" width="1.25" height="1.25" fill="#020202"/>
<rect x="5.0415" y="13.75" width="1.25" height="1.25" fill="#020202"/>
<rect x="5.0415" y="12.5" width="1.25" height="1.25" fill="#020202"/>
<rect x="5.0415" y="11.25" width="1.25" height="1.25" fill="#020202"/>
<rect x="5.0415" y="10" width="1.25" height="1.25" fill="#020202"/>
<rect x="5.0415" y="8.75" width="1.25" height="1.25" fill="#020202"/>
<rect x="5.0415" y="7.5" width="1.25" height="1.25" fill="#020202"/>
<rect x="10.0415" y="16.25" width="1.25" height="1.25" fill="#020202"/>
<rect x="10.0415" y="15" width="1.25" height="1.25" fill="#020202"/>
<rect x="10.0415" y="13.75" width="1.25" height="1.25" fill="#020202"/>
<rect x="10.0415" y="12.5" width="1.25" height="1.25" fill="#020202"/>
<rect x="10.0415" y="11.25" width="1.25" height="1.25" fill="#020202"/>
<rect x="10.0415" y="10" width="1.25" height="1.25" fill="#020202"/>
<rect x="10.0415" y="8.75" width="1.25" height="1.25" fill="#020202"/>
<rect x="10.0415" y="7.5" width="1.25" height="1.25" fill="#020202"/>
<rect x="12.5415" y="17.5" width="1.25" height="1.25" fill="#020202"/>
<rect x="12.5415" y="16.25" width="1.25" height="1.25" fill="#020202"/>
<rect x="12.5415" y="15" width="1.25" height="1.25" fill="#020202"/>
<rect x="12.5415" y="13.75" width="1.25" height="1.25" fill="#020202"/>
<rect x="12.5415" y="12.5" width="1.25" height="1.25" fill="#020202"/>
<rect x="12.5415" y="11.25" width="1.25" height="1.25" fill="#020202"/>
<rect x="12.5415" y="10" width="1.25" height="1.25" fill="#020202"/>
<rect x="12.5415" y="8.75" width="1.25" height="1.25" fill="#020202"/>
<rect x="12.5415" y="7.5" width="1.25" height="1.25" fill="#020202"/>
<rect x="2.5415" y="18.75" width="1.25" height="1.25" fill="#020202"/>
<rect x="2.5415" y="17.5" width="1.25" height="1.25" fill="#020202"/>
<rect x="2.5415" y="16.25" width="1.25" height="1.25" fill="#020202"/>
<rect x="2.5415" y="15" width="1.25" height="1.25" fill="#020202"/>
<rect x="2.5415" y="13.75" width="1.25" height="1.25" fill="#020202"/>
<rect x="2.5415" y="12.5" width="1.25" height="1.25" fill="#020202"/>
<rect x="2.5415" y="11.25" width="1.25" height="1.25" fill="#020202"/>
<rect x="2.5415" y="10" width="1.25" height="1.25" fill="#020202"/>
<rect x="2.5415" y="8.75" width="1.25" height="1.25" fill="#020202"/>
<rect x="2.5415" y="7.5" width="1.25" height="1.25" fill="#020202"/>
<rect x="2.5415" y="6.25" width="1.25" height="1.25" fill="#020202"/>
<rect x="5.0415" y="6.25" width="1.25" height="1.25" fill="#020202"/>
<rect x="7.5415" y="6.25" width="1.25" height="1.25" fill="#020202"/>
<rect x="10.0415" y="6.25" width="1.25" height="1.25" fill="#020202"/>
<rect x="12.5415" y="6.25" width="1.25" height="1.25" fill="#020202"/>
<rect x="1.2915" y="5" width="1.25" height="1.25" fill="#020202"/>
<rect x="2.5415" y="5" width="1.25" height="1.25" fill="#020202"/>
<rect x="3.7915" y="5" width="1.25" height="1.25" fill="#020202"/>
<rect x="5.0415" y="5" width="1.25" height="1.25" fill="#020202"/>
<rect x="6.2915" y="5" width="1.25" height="1.25" fill="#020202"/>
<rect x="7.5415" y="5" width="1.25" height="1.25" fill="#020202"/>
<rect x="8.7915" y="5" width="1.25" height="1.25" fill="#020202"/>
<rect x="10.0415" y="5" width="1.25" height="1.25" fill="#020202"/>
<rect x="11.2915" y="5" width="1.25" height="1.25" fill="#020202"/>
<rect x="12.5415" y="5" width="1.25" height="1.25" fill="#020202"/>
<rect x="13.7915" y="5" width="1.25" height="1.25" fill="#020202"/>
<rect x="0.0415039" y="5" width="1.25" height="1.25" fill="#020202"/>
<rect x="0.0415039" y="3.75" width="1.25" height="1.25" fill="#020202"/>
<rect x="0.0415039" y="2.5" width="1.25" height="1.25" fill="#020202"/>
<rect x="1.2915" y="2.5" width="1.25" height="1.25" fill="#020202"/>
<rect x="2.5415" y="2.5" width="1.25" height="1.25" fill="#020202"/>
<rect x="3.7915" y="2.5" width="1.25" height="1.25" fill="#020202"/>
<rect x="5.0415" y="2.5" width="1.25" height="1.25" fill="#020202"/>
<rect x="6.2915" y="2.5" width="1.25" height="1.25" fill="#020202"/>
<rect x="7.5415" y="2.5" width="1.25" height="1.25" fill="#020202"/>
<rect x="8.7915" y="2.5" width="1.25" height="1.25" fill="#020202"/>
<rect x="10.0415" y="2.5" width="1.25" height="1.25" fill="#020202"/>
<rect x="11.2915" y="2.5" width="1.25" height="1.25" fill="#020202"/>
<rect x="12.5415" y="2.5" width="1.25" height="1.25" fill="#020202"/>
<rect x="13.7915" y="2.5" width="1.25" height="1.25" fill="#020202"/>
<rect x="15.0415" y="5" width="1.25" height="1.25" fill="#020202"/>
<rect x="15.0415" y="3.75" width="1.25" height="1.25" fill="#020202"/>
<rect x="15.0415" y="2.5" width="1.25" height="1.25" fill="#020202"/>
<rect x="1.2915" y="7.5" width="1.25" height="1.25" fill="#020202"/>
<rect x="0.0415039" y="8.75" width="1.25" height="1.25" fill="#020202"/>
<rect x="0.0415039" y="10" width="1.25" height="1.25" fill="#020202"/>
<rect x="0.0415039" y="11.25" width="1.25" height="1.25" fill="#020202"/>
<rect x="1.2915" y="12.5" width="1.25" height="1.25" fill="#020202"/>
<rect x="13.7915" y="12.5" width="1.25" height="1.25" fill="#020202"/>
<rect x="13.7915" y="7.5" width="1.25" height="1.25" fill="#020202"/>
<rect x="15.0415" y="8.75" width="1.25" height="1.25" fill="#020202"/>
<rect x="15.0415" y="10" width="1.25" height="1.25" fill="#020202"/>
<rect x="15.0415" y="11.25" width="1.25" height="1.25" fill="#020202"/>
<rect x="3.7915" y="1.25" width="1.25" height="1.25" fill="#020202"/>
<rect x="5.0415" width="1.25" height="1.25" fill="#020202"/>
<rect x="6.2915" width="1.25" height="1.25" fill="#020202"/>
<rect x="7.5415" width="1.25" height="1.25" fill="#020202"/>
<rect x="8.7915" width="1.25" height="1.25" fill="#020202"/>
<rect x="10.0415" width="1.25" height="1.25" fill="#020202"/>
<rect x="11.2915" y="1.25" width="1.25" height="1.25" fill="#020202"/>
<rect x="6.2915" y="15" width="1.25" height="1.25" fill="#8C8C8C"/>
<rect x="6.2915" y="16.25" width="1.25" height="1.25" fill="#8C8C8C"/>
<rect x="6.2915" y="17.5" width="1.25" height="1.25" fill="#8C8C8C"/>
<rect x="7.5415" y="17.5" width="1.25" height="1.25" fill="#8C8C8C"/>
<rect x="8.7915" y="17.5" width="1.25" height="1.25" fill="#8C8C8C"/>
<rect x="8.7915" y="16.25" width="1.25" height="1.25" fill="#8C8C8C"/>
<rect x="8.7915" y="15" width="1.25" height="1.25" fill="#8C8C8C"/>
<rect x="8.7915" y="13.75" width="1.25" height="1.25" fill="#8C8C8C"/>
<rect x="8.7915" y="12.5" width="1.25" height="1.25" fill="#8C8C8C"/>
<rect x="8.7915" y="11.25" width="1.25" height="1.25" fill="#8C8C8C"/>
<rect x="8.7915" y="10" width="1.25" height="1.25" fill="#8C8C8C"/>
<rect x="8.7915" y="8.75" width="1.25" height="1.25" fill="#8C8C8C"/>
<rect x="8.7915" y="7.5" width="1.25" height="1.25" fill="#8C8C8C"/>
<rect x="8.7915" y="6.25" width="1.25" height="1.25" fill="#8C8C8C"/>
<rect x="10.0415" y="17.5" width="1.25" height="1.25" fill="#8C8C8C"/>
<rect x="11.2915" y="17.5" width="1.25" height="1.25" fill="#8C8C8C"/>
<rect x="11.2915" y="16.25" width="1.25" height="1.25" fill="#8C8C8C"/>
<rect x="11.2915" y="15" width="1.25" height="1.25" fill="#8C8C8C"/>
<rect x="11.2915" y="13.75" width="1.25" height="1.25" fill="#8C8C8C"/>
<rect x="11.2915" y="12.5" width="1.25" height="1.25" fill="#8C8C8C"/>
<rect x="11.2915" y="11.25" width="1.25" height="1.25" fill="#8C8C8C"/>
<rect x="11.2915" y="10" width="1.25" height="1.25" fill="#8C8C8C"/>
<rect x="11.2915" y="8.75" width="1.25" height="1.25" fill="#8C8C8C"/>
<rect x="11.2915" y="7.5" width="1.25" height="1.25" fill="#8C8C8C"/>
<rect x="11.2915" y="6.25" width="1.25" height="1.25" fill="#8C8C8C"/>
<rect x="5.0415" y="17.5" width="1.25" height="1.25" fill="#8C8C8C"/>
<rect x="3.7915" y="17.5" width="1.25" height="1.25" fill="#8C8C8C"/>
<rect x="3.7915" y="16.25" width="1.25" height="1.25" fill="#8C8C8C"/>
<rect x="3.7915" y="15" width="1.25" height="1.25" fill="#8C8C8C"/>
<rect x="3.7915" y="13.75" width="1.25" height="1.25" fill="#8C8C8C"/>
<rect x="3.7915" y="12.5" width="1.25" height="1.25" fill="#8C8C8C"/>
<rect x="3.7915" y="11.25" width="1.25" height="1.25" fill="#8C8C8C"/>
<rect x="3.7915" y="10" width="1.25" height="1.25" fill="#8C8C8C"/>
<rect x="3.7915" y="8.75" width="1.25" height="1.25" fill="#8C8C8C"/>
<rect x="3.7915" y="7.5" width="1.25" height="1.25" fill="#8C8C8C"/>
<rect x="3.7915" y="6.25" width="1.25" height="1.25" fill="#8C8C8C"/>
<rect x="6.2915" y="13.75" width="1.25" height="1.25" fill="#8C8C8C"/>
<rect x="6.2915" y="12.5" width="1.25" height="1.25" fill="#8C8C8C"/>
<rect x="6.2915" y="11.25" width="1.25" height="1.25" fill="#8C8C8C"/>
<rect x="6.2915" y="10" width="1.25" height="1.25" fill="#8C8C8C"/>
<rect x="6.2915" y="8.75" width="1.25" height="1.25" fill="#8C8C8C"/>
<rect x="6.2915" y="7.5" width="1.25" height="1.25" fill="#8C8C8C"/>
<rect x="6.2915" y="6.25" width="1.25" height="1.25" fill="#8C8C8C"/>
<rect x="5.0415" y="3.75" width="1.25" height="1.25" fill="#8C8C8C"/>
<rect x="6.2915" y="3.75" width="1.25" height="1.25" fill="#8C8C8C"/>
<rect x="7.5415" y="3.75" width="1.25" height="1.25" fill="#8C8C8C"/>
<rect x="8.7915" y="3.75" width="1.25" height="1.25" fill="#8C8C8C"/>
<rect x="10.0415" y="3.75" width="1.25" height="1.25" fill="#8C8C8C"/>
<rect x="11.2915" y="3.75" width="1.25" height="1.25" fill="#8C8C8C"/>
<rect x="12.5415" y="3.75" width="1.25" height="1.25" fill="#8C8C8C"/>
<rect x="13.7915" y="3.75" width="1.25" height="1.25" fill="#8C8C8C"/>
<rect x="3.7915" y="3.75" width="1.25" height="1.25" fill="#8C8C8C"/>
<rect x="2.5415" y="3.75" width="1.25" height="1.25" fill="#8C8C8C"/>
<rect x="1.2915" y="3.75" width="1.25" height="1.25" fill="#8C8C8C"/>
</svg>
