<svg width="15" height="20" viewBox="0 0 15 20" fill="none" xmlns="http://www.w3.org/2000/svg">
<rect x="6.875" y="18.75" width="1.25" height="1.25" fill="#020202"/>
<rect x="5.625" y="17.5" width="1.25" height="1.25" fill="#020202"/>
<rect x="8.125" y="17.5" width="1.25" height="1.25" fill="#020202"/>
<rect x="9.375" y="16.25" width="1.25" height="1.25" fill="#020202"/>
<rect x="4.375" y="16.25" width="1.25" height="1.25" fill="#020202"/>
<rect x="3.125" y="15" width="1.25" height="1.25" fill="#020202"/>
<rect x="1.875" y="13.75" width="1.25" height="1.25" fill="#020202"/>
<rect x="0.625" y="12.5" width="1.25" height="1.25" fill="#020202"/>
<rect x="10.625" y="15" width="1.25" height="1.25" fill="#020202"/>
<rect x="11.875" y="13.75" width="1.25" height="1.25" fill="#020202"/>
<rect x="13.125" y="12.5" width="1.25" height="1.25" fill="#020202"/>
<rect x="0.625" y="11.25" width="1.25" height="1.25" fill="#020202"/>
<rect x="0.625" y="10" width="1.25" height="1.25" fill="#020202"/>
<rect x="0.625" y="8.75" width="1.25" height="1.25" fill="#020202"/>
<rect x="0.625" y="7.5" width="1.25" height="1.25" fill="#020202"/>
<rect x="0.625" y="6.25" width="1.25" height="1.25" fill="#020202"/>
<rect x="0.625" y="5" width="1.25" height="1.25" fill="#020202"/>
<rect x="0.625" y="3.75" width="1.25" height="1.25" fill="#020202"/>
<rect x="0.625" y="2.5" width="1.25" height="1.25" fill="#020202"/>
<rect x="0.625" y="1.25" width="1.25" height="1.25" fill="#020202"/>
<rect x="13.125" y="11.25" width="1.25" height="1.25" fill="#020202"/>
<rect x="13.125" y="10" width="1.25" height="1.25" fill="#020202"/>
<rect x="13.125" y="8.75" width="1.25" height="1.25" fill="#020202"/>
<rect x="13.125" y="7.5" width="1.25" height="1.25" fill="#020202"/>
<rect x="13.125" y="6.25" width="1.25" height="1.25" fill="#020202"/>
<rect x="13.125" y="5" width="1.25" height="1.25" fill="#020202"/>
<rect x="13.125" y="3.75" width="1.25" height="1.25" fill="#020202"/>
<rect x="13.125" y="1.25" width="1.25" height="1.25" fill="#020202"/>
<rect x="13.125" y="2.5" width="1.25" height="1.25" fill="#020202"/>
<rect x="1.875" width="1.25" height="1.25" fill="#020202"/>
<rect x="3.125" width="1.25" height="1.25" fill="#020202"/>
<rect x="4.375" width="1.25" height="1.25" fill="#020202"/>
<rect x="5.625" width="1.25" height="1.25" fill="#020202"/>
<rect x="6.875" width="1.25" height="1.25" fill="#020202"/>
<rect x="9.375" width="1.25" height="1.25" fill="#020202"/>
<rect x="11.875" width="1.25" height="1.25" fill="#020202"/>
<rect x="10.625" width="1.25" height="1.25" fill="#020202"/>
<rect x="8.125" width="1.25" height="1.25" fill="#020202"/>
<rect x="1.875" y="12.5" width="1.25" height="1.25" fill="#020202"/>
<rect x="3.125" y="11.25" width="1.25" height="1.25" fill="#020202"/>
<rect x="4.375" y="10" width="1.25" height="1.25" fill="#020202"/>
<rect x="5.625" y="11.25" width="1.25" height="1.25" fill="#020202"/>
<rect x="6.875" y="12.5" width="1.25" height="1.25" fill="#020202"/>
<rect x="8.125" y="11.25" width="1.25" height="1.25" fill="#020202"/>
<rect x="9.375" y="10" width="1.25" height="1.25" fill="#020202"/>
<rect x="10.625" y="11.25" width="1.25" height="1.25" fill="#020202"/>
<rect x="11.875" y="12.5" width="1.25" height="1.25" fill="#020202"/>
<rect x="4.375" y="8.75" width="1.25" height="1.25" fill="#020202"/>
<rect x="4.375" y="7.5" width="1.25" height="1.25" fill="#020202"/>
<rect x="4.375" y="6.25" width="1.25" height="1.25" fill="#020202"/>
<rect x="4.375" y="5" width="1.25" height="1.25" fill="#020202"/>
<rect x="9.375" y="8.75" width="1.25" height="1.25" fill="#020202"/>
<rect x="9.375" y="7.5" width="1.25" height="1.25" fill="#020202"/>
<rect x="9.375" y="6.25" width="1.25" height="1.25" fill="#020202"/>
<rect x="9.375" y="5" width="1.25" height="1.25" fill="#020202"/>
<rect x="6.875" y="17.5" width="1.25" height="1.25" fill="#020202"/>
<rect x="5.625" y="16.25" width="1.25" height="1.25" fill="#020202"/>
<rect x="6.875" y="16.25" width="1.25" height="1.25" fill="#020202"/>
<rect x="8.125" y="16.25" width="1.25" height="1.25" fill="#020202"/>
<rect x="1.875" y="5" width="1.25" height="1.25" fill="#020202"/>
<rect x="3.125" y="5" width="1.25" height="1.25" fill="#020202"/>
<rect x="5.625" y="5" width="1.25" height="1.25" fill="#020202"/>
<rect x="6.875" y="5" width="1.25" height="1.25" fill="#020202"/>
<rect x="8.125" y="5" width="1.25" height="1.25" fill="#020202"/>
<rect x="10.625" y="5" width="1.25" height="1.25" fill="#020202"/>
<rect x="11.875" y="5" width="1.25" height="1.25" fill="#020202"/>
<rect x="1.875" y="7.5" width="1.25" height="1.25" fill="#FFE20A"/>
<rect x="1.875" y="8.75" width="1.25" height="1.25" fill="#FFE20A"/>
<rect x="1.875" y="10" width="1.25" height="1.25" fill="#FFE20A"/>
<rect x="1.875" y="11.25" width="1.25" height="1.25" fill="#FFE20A"/>
<rect x="3.125" y="10" width="1.25" height="1.25" fill="#FFE20A"/>
<rect x="3.125" y="8.75" width="1.25" height="1.25" fill="#FFE20A"/>
<rect x="3.125" y="7.5" width="1.25" height="1.25" fill="#FFE20A"/>
<rect x="3.125" y="6.25" width="1.25" height="1.25" fill="#FFE20A"/>
<rect x="1.875" y="6.25" width="1.25" height="1.25" fill="#FFE20A"/>
<rect x="11.875" y="7.5" width="1.25" height="1.25" fill="#FFE20A"/>
<rect x="11.875" y="8.75" width="1.25" height="1.25" fill="#FFE20A"/>
<rect x="11.875" y="10" width="1.25" height="1.25" fill="#FFE20A"/>
<rect x="11.875" y="11.25" width="1.25" height="1.25" fill="#FFE20A"/>
<rect x="10.625" y="10" width="1.25" height="1.25" fill="#FFE20A"/>
<rect x="10.625" y="8.75" width="1.25" height="1.25" fill="#FFE20A"/>
<rect x="10.625" y="7.5" width="1.25" height="1.25" fill="#FFE20A"/>
<rect x="10.625" y="6.25" width="1.25" height="1.25" fill="#FFE20A"/>
<rect x="11.875" y="6.25" width="1.25" height="1.25" fill="#FFE20A"/>
<rect x="6.875" y="7.5" width="1.25" height="1.25" fill="#FFE20A"/>
<rect x="6.875" y="8.75" width="1.25" height="1.25" fill="#FFE20A"/>
<rect x="6.875" y="10" width="1.25" height="1.25" fill="#FFE20A"/>
<rect x="6.875" y="11.25" width="1.25" height="1.25" fill="#FFE20A"/>
<rect x="8.125" y="10" width="1.25" height="1.25" fill="#FFE20A"/>
<rect x="8.125" y="8.75" width="1.25" height="1.25" fill="#FFE20A"/>
<rect x="8.125" y="7.5" width="1.25" height="1.25" fill="#FFE20A"/>
<rect x="8.125" y="6.25" width="1.25" height="1.25" fill="#FFE20A"/>
<rect x="6.875" y="6.25" width="1.25" height="1.25" fill="#FFE20A"/>
<rect x="5.625" y="6.25" width="1.25" height="1.25" fill="#FFE20A"/>
<rect x="5.625" y="7.5" width="1.25" height="1.25" fill="#FFE20A"/>
<rect x="5.625" y="8.75" width="1.25" height="1.25" fill="#FFE20A"/>
<rect x="5.625" y="10" width="1.25" height="1.25" fill="#FFE20A"/>
<rect x="5.625" y="13.75" width="1.25" height="1.25" fill="#FDFFB4"/>
<rect x="5.625" y="15" width="1.25" height="1.25" fill="#8C8C8C"/>
<rect x="6.875" y="15" width="1.25" height="1.25" fill="#FDFFB4"/>
<rect x="6.875" y="13.75" width="1.25" height="1.25" fill="#8C8C8C"/>
<rect x="8.125" y="13.75" width="1.25" height="1.25" fill="#FDFFB4"/>
<rect x="8.125" y="15" width="1.25" height="1.25" fill="#8C8C8C"/>
<rect x="9.375" y="15" width="1.25" height="1.25" fill="#FDFFB4"/>
<rect x="9.375" y="13.75" width="1.25" height="1.25" fill="#8C8C8C"/>
<rect x="9.375" y="12.5" width="1.25" height="1.25" fill="#FDFFB4"/>
<rect x="9.375" y="11.25" width="1.25" height="1.25" fill="#8C8C8C"/>
<rect x="10.625" y="12.5" width="1.25" height="1.25" fill="#8C8C8C"/>
<rect x="10.625" y="13.75" width="1.25" height="1.25" fill="#FDFFB4"/>
<rect x="8.125" y="12.5" width="1.25" height="1.25" fill="#8C8C8C"/>
<rect x="4.375" y="15" width="1.25" height="1.25" fill="#FDFFB4"/>
<rect x="4.375" y="13.75" width="1.25" height="1.25" fill="#8C8C8C"/>
<rect x="4.375" y="12.5" width="1.25" height="1.25" fill="#FDFFB4"/>
<rect x="4.375" y="11.25" width="1.25" height="1.25" fill="#8C8C8C"/>
<rect x="5.625" y="12.5" width="1.25" height="1.25" fill="#8C8C8C"/>
<rect x="3.125" y="12.5" width="1.25" height="1.25" fill="#8C8C8C"/>
<rect x="3.125" y="13.75" width="1.25" height="1.25" fill="#FDFFB4"/>
<rect x="8.125" y="2.5" width="1.25" height="1.25" fill="#FF9A9C"/>
<rect x="8.125" y="3.75" width="1.25" height="1.25" fill="#FDFFB4"/>
<rect x="9.375" y="3.75" width="1.25" height="1.25" fill="#FF9A9C"/>
<rect x="9.375" y="2.5" width="1.25" height="1.25" fill="#FDFFB4"/>
<rect x="9.375" y="1.25" width="1.25" height="1.25" fill="#FF9A9C"/>
<rect x="10.625" y="1.25" width="1.25" height="1.25" fill="#FDFFB4"/>
<rect x="10.625" y="2.5" width="1.25" height="1.25" fill="#FF9A9C"/>
<rect x="10.625" y="3.75" width="1.25" height="1.25" fill="#FDFFB4"/>
<rect x="11.875" y="3.75" width="1.25" height="1.25" fill="#FF9A9C"/>
<rect x="11.875" y="2.5" width="1.25" height="1.25" fill="#FDFFB4"/>
<rect x="11.875" y="1.25" width="1.25" height="1.25" fill="#FF9A9C"/>
<rect x="8.125" y="1.25" width="1.25" height="1.25" fill="#FDFFB4"/>
<rect x="6.875" y="1.25" width="1.25" height="1.25" fill="#FF9A9C"/>
<rect x="6.875" y="2.5" width="1.25" height="1.25" fill="#FDFFB4"/>
<rect x="6.875" y="3.75" width="1.25" height="1.25" fill="#FF9A9C"/>
<rect x="5.625" y="3.75" width="1.25" height="1.25" fill="#FDFFB4"/>
<rect x="5.625" y="2.5" width="1.25" height="1.25" fill="#FF9A9C"/>
<rect x="5.625" y="1.25" width="1.25" height="1.25" fill="#FDFFB4"/>
<rect x="4.375" y="1.25" width="1.25" height="1.25" fill="#FF9A9C"/>
<rect x="4.375" y="2.5" width="1.25" height="1.25" fill="#FDFFB4"/>
<rect x="4.375" y="3.75" width="1.25" height="1.25" fill="#FF9A9C"/>
<rect x="3.125" y="3.75" width="1.25" height="1.25" fill="#FDFFB4"/>
<rect x="3.125" y="2.5" width="1.25" height="1.25" fill="#FF9A9C"/>
<rect x="3.125" y="1.25" width="1.25" height="1.25" fill="#FDFFB4"/>
<rect x="1.875" y="1.25" width="1.25" height="1.25" fill="#FF9A9C"/>
<rect x="1.875" y="2.5" width="1.25" height="1.25" fill="#FDFFB4"/>
<rect x="1.875" y="3.75" width="1.25" height="1.25" fill="#FF9A9C"/>
</svg>
