<svg width="9" height="16" viewBox="0 0 9 16" fill="none" xmlns="http://www.w3.org/2000/svg">
<rect x="1.59082" width="1.45455" height="1.45455" fill="black"/>
<rect x="3.04541" width="1.45455" height="1.45455" fill="black"/>
<rect x="4.5" width="1.45455" height="1.45455" fill="black"/>
<rect x="5.95459" width="1.45455" height="1.45455" fill="black"/>
<rect x="0.13623" y="1.45459" width="1.45455" height="1.45455" fill="black"/>
<rect x="7.40918" y="1.45459" width="1.45455" height="1.45455" fill="black"/>
<rect x="0.13623" y="2.90906" width="1.45455" height="1.45455" fill="black"/>
<rect x="0.13623" y="4.36365" width="1.45455" height="1.45455" fill="black"/>
<rect x="7.40918" y="2.90906" width="1.45455" height="1.45455" fill="black"/>
<rect x="7.40918" y="5.81824" width="1.45455" height="1.45455" fill="black"/>
<rect x="7.40918" y="4.36365" width="1.45455" height="1.45455" fill="black"/>
<rect x="5.95459" y="7.27271" width="1.45455" height="1.45455" fill="black"/>
<rect x="4.5" y="7.27271" width="1.45455" height="1.45455" fill="black"/>
<rect x="3.04541" y="8.72729" width="1.45455" height="1.45455" fill="black"/>
<rect x="3.04541" y="10.1818" width="1.45455" height="1.45455" fill="black"/>
<rect x="3.04541" y="13.0909" width="1.45455" height="1.45455" fill="black"/>
<rect x="3.04541" y="14.5454" width="1.45455" height="1.45455" fill="black"/>
</svg>
